# File created by Blade
# Date/Time:  Tue Jan 27 19:14:14 2015
#---------------------------------------------------------
:version 1.10
:name HOM
:units
  mass 1.0
  length 1.000000
  angle deg
:documentation
     Acclaim Skeleton File
:root
   axis xyz
   order TX TY TZ RX RY RZ
   position 0.000000 0.000000 0.000000
   orientation 0 0 0
:bonedata
   begin
      id 1
      name Spine_dum
      direction 0.000000 1.000000 0.000000
      length 6.116652
      axis 0.0 0.0 0.0 xyz
   end
   begin
      id 2
      name LeftUpLeg_dum
      direction 1.000000 0.000000 0.000000
      length 4.711765
      axis 0.0 0.0 0.0 xyz
   end
   begin
      id 3
      name RightUpLeg_dum
      direction -1.000000 0.000000 0.000000
      length 4.711765
      axis 0.0 0.0 0.0 xyz
   end
   begin
      id 4
      name Spine
      direction 0.000000 1.000000 0.000000
      length 0.000000
      axis 0.0 0.0 0.0 xyz
      dof rx ry rz
   end
   begin
      id 5
      name Spine_dum1
      direction 0.000000 1.000000 0.000000
      length 15.225563
      axis 0.0 0.0 0.0 xyz
   end
   begin
      id 6
      name Spine_dum2
      direction 0.000000 1.000000 0.000000
      length 8.977654
      axis 0.0 0.0 0.0 xyz
   end
   begin
      id 7
      name Spine_dum3
      direction 0.000000 1.000000 0.000000
      length 8.977654
      axis 0.0 0.0 0.0 xyz
   end
   begin
      id 8
      name Head
      direction 0.000000 1.000000 0.000000
      length 4.527550
      axis 0.0 0.0 0.0 xyz
      dof rx ry rz
   end
   begin
      id 9
      name LeftShoulder
      direction 1.000000 0.000000 0.000000
      length 7.110130
      axis 0.0 0.0 -90.0 xyz
      dof rx ry rz
   end
   begin
      id 10
      name LeftArm
      direction 1.000000 0.000000 0.000000
      length 10.398341
      axis 0.0 0.0 -90.0 xyz
      dof rx ry rz
   end
   begin
      id 11
      name LeftForeArm
      direction 1.000000 0.000000 0.000000
      length 8.888997
      axis 0.0 0.0 -90.0 xyz
      dof ry rz rx
   end
   begin
      id 12
      name LeftHand
      direction 0.000000 0.000000 0.000000
      length 0.000000
      axis 0.0 0.0 -90.0 xyz
      dof rx ry rz
   end
   begin
      id 13
      name LeftHand_dum1
      direction 0.000000 0.000000 0.000000
      length 0.000000
      axis 0.0 0.0 -90.0 xyz
   end
   begin
      id 14
      name LeftHand_dum2
      direction 1.000000 0.000000 0.000000
      length 3.937000
      axis 0.0 0.0 -90.0 xyz
   end
   begin
      id 15
      name LeftHandThumb1
      direction 0.000000 0.000000 1.000000
      length 3.937000
      axis 0.0 0.0 -90.0 xyz
      dof rx rz ry
   end
   begin
      id 16
      name RightShoulder
      direction -1.000000 0.000000 0.000000
      length 7.110130
      axis 0.0 0.0 90.0 xyz
      dof rx ry rz
   end
   begin
      id 17
      name RightArm
      direction -1.000000 0.000000 0.000000
      length 10.398341
      axis 0.0 0.0 90.0 xyz
      dof rx ry rz
   end
   begin
      id 18
      name RightForeArm
      direction -1.000000 0.000000 0.000000
      length 8.888997
      axis 0.0 0.0 90.0 xyz
      dof ry rz rx
   end
   begin
      id 19
      name RightHand
      direction 0.000000 0.000000 0.000000
      length 0.000000
      axis 0.0 0.0 90.0 xyz
      dof rx ry rz
   end
   begin
      id 20
      name RightHand_dum1
      direction 0.000000 0.000000 0.000000
      length 0.000000
      axis 0.0 0.0 90.0 xyz
   end
   begin
      id 21
      name RightHand_dum2
      direction -1.000000 0.000000 0.000000
      length 3.937000
      axis 0.0 0.0 90.0 xyz
   end
   begin
      id 22
      name RightHandThumb1
      direction 0.000000 0.000000 1.000000
      length 3.937000
      axis 0.0 0.0 90.0 xyz
      dof rx rz ry
   end
   begin
      id 23
      name LeftUpLeg
      direction 0.000000 -1.000000 0.000000
      length 15.510451
      axis 0.0 0.0 0.0 xyz
      dof rx ry rz
   end
   begin
      id 24
      name LeftLeg
      direction 0.000000 -1.000000 0.000000
      length 14.858061
      axis 0.0 0.0 0.0 xyz
      dof rx ry rz
   end
   begin
      id 25
      name LeftFoot
      direction 0.000000 -0.258819 0.965926
      length 5.128852
      axis 15.0 0.0 0.0 xyz
      dof rx ry rz
   end
   begin
      id 26
      name LeftToeBase
      direction 0.000000 0.000000 1.000000
      length 2.952750
      axis 0.0 0.0 0.0 xyz
      dof rx ry rz
   end
   begin
      id 27
      name RightUpLeg
      direction 0.000000 -1.000000 0.000000
      length 15.510451
      axis 0.0 0.0 0.0 xyz
      dof rx ry rz
   end
   begin
      id 28
      name RightLeg
      direction 0.000000 -1.000000 0.000000
      length 14.858061
      axis 0.0 0.0 0.0 xyz
      dof rx ry rz
   end
   begin
      id 29
      name RightFoot
      direction 0.000000 -0.258819 0.965926
      length 5.128852
      axis 15.0 0.0 0.0 xyz
      dof rx ry rz
   end
   begin
      id 30
      name RightToeBase
      direction 0.000000 0.000000 1.000000
      length 2.952750
      axis 0.0 0.0 0.0 xyz
      dof rx ry rz
   end
:hierarchy
   begin
      root Spine_dum LeftUpLeg_dum RightUpLeg_dum
      Spine_dum Spine
      LeftUpLeg_dum LeftUpLeg
      RightUpLeg_dum RightUpLeg
      Spine Spine_dum1 Spine_dum2 Spine_dum3
      Spine_dum1 Head
      Spine_dum2 LeftShoulder
      Spine_dum3 RightShoulder
      LeftShoulder LeftArm
      LeftArm LeftForeArm
      LeftForeArm LeftHand
      LeftHand LeftHand_dum1 LeftHand_dum2
      LeftHand_dum1 LeftHandThumb1
      RightShoulder RightArm
      RightArm RightForeArm
      RightForeArm RightHand
      RightHand RightHand_dum1 RightHand_dum2
      RightHand_dum1 RightHandThumb1
      LeftUpLeg LeftLeg
      LeftLeg LeftFoot
      LeftFoot LeftToeBase
      RightUpLeg RightLeg
      RightLeg RightFoot
      RightFoot RightToeBase
   end

# File created by Blade
# Date/Time:  Tue Jan 27 19:14:06 2015
# Frame Rate: 120.000 fps
#------------------------------------------------------
:FULLY-SPECIFIED
:DEGREES
282
root 4.028441 32.437634 1.151875 -3.048992 11.284737 1.236520
Spine -0.770112 9.624624 -3.313151
Head 13.244924 -22.877261 -0.642031
LeftShoulder -9.218055 -7.885763 25.923958
LeftArm -7.676664 37.191558 -105.524412
LeftForeArm 5.647607 -0.000000 12.777613
LeftHand 9.698781 -0.000000 -7.199465
LeftHandThumb1 -26.253704 0.000000 33.147579
RightShoulder -19.512823 15.052759 -63.253710
RightArm 111.953025 67.030378 117.176136
RightForeArm 30.478789 -0.000000 148.909469
RightHand 29.091298 -0.000000 -18.288776
RightHandThumb1 -24.326973 -0.000000 -32.862282
LeftUpLeg 8.484023 -8.330859 -1.447659
LeftLeg 2.658804 -0.000000 -0.000000
LeftFoot -14.334587 8.703179 -20.701837
LeftToeBase 16.888393 -0.000000 -0.000000
RightUpLeg 11.323102 -4.150153 3.125702
RightLeg -1.422201 -0.000000 0.000000
RightFoot -14.068409 -18.811239 16.153117
RightToeBase 12.343063 -0.000000 -0.000000
283
root 4.026876 32.436999 1.155086 -3.038401 11.283667 1.236612
Spine -0.779773 9.649078 -3.320183
Head 13.241528 -22.895812 -0.661784
LeftShoulder -9.217959 -7.871846 25.915225
LeftArm -7.648950 37.203094 -105.482115
LeftForeArm 5.475774 -0.000000 12.768751
LeftHand 9.816892 0.000000 -7.442420
LeftHandThumb1 -26.253704 0.000000 33.147579
RightShoulder -19.558483 15.040797 -63.245311
RightArm 111.816572 66.927360 116.936538
RightForeArm 30.504776 -0.000000 148.998486
RightHand 29.094277 0.000000 -18.273740
RightHandThumb1 -24.326973 -0.000000 -32.862282
LeftUpLeg 8.480985 -8.320184 -1.438488
LeftLeg 2.645499 -0.000000 -0.000000
LeftFoot -14.390101 8.663297 -20.879659
LeftToeBase 17.141290 -0.000000 -0.000000
RightUpLeg 11.319402 -4.166101 3.127032
RightLeg -1.425396 -0.000000 0.000000
RightFoot -14.067447 -18.793160 16.152120
RightToeBase 12.333106 -0.000000 -0.000000
284
root 4.024973 32.436533 1.158067 -3.028892 11.287409 1.234537
Spine -0.793376 9.666507 -3.326972
Head 13.245720 -22.962091 -0.719394
LeftShoulder -9.226042 -7.901841 25.911689
LeftArm -7.658294 37.168180 -105.457753
LeftForeArm 5.455741 -0.000000 12.734306
LeftHand 9.811879 -0.000000 -7.441941
LeftHandThumb1 -26.253704 0.000000 33.147579
RightShoulder -19.571593 14.989487 -63.245902
RightArm 111.802223 66.859671 116.856377
RightForeArm 30.606287 -0.000000 149.108917
RightHand 29.122713 0.000000 -18.275845
RightHandThumb1 -24.326973 -0.000000 -32.862282
LeftUpLeg 8.478334 -8.323353 -1.431447
LeftLeg 2.640250 -0.000000 -0.000000
LeftFoot -14.390128 8.673989 -20.846239
LeftToeBase 17.143319 -0.000000 -0.000000
RightUpLeg 11.322724 -4.186952 3.130531
RightLeg -1.440896 -0.000000 0.000000
RightFoot -14.061279 -18.778118 16.133723
RightToeBase 12.368108 -0.000000 -0.000000
285
root 4.024932 32.436559 1.162456 -3.026129 11.279233 1.255541
Spine -0.789896 9.702342 -3.358960
Head 13.253742 -22.953916 -0.743799
LeftShoulder -9.235369 -7.898650 25.900090
LeftArm -7.624908 37.118760 -105.390911
LeftForeArm 5.628646 -0.000000 12.720519
LeftHand 9.578234 0.000000 -7.162286
LeftHandThumb1 -26.253704 0.000000 33.147579
RightShoulder -19.579086 14.847547 -63.239673
RightArm 112.060211 66.789405 117.075059
RightForeArm 30.794680 -0.000000 149.231589
RightHand 29.210329 -0.000000 -18.222945
RightHandThumb1 -24.326973 -0.000000 -32.862282
LeftUpLeg 8.482311 -8.394462 -1.464889
LeftLeg 2.657619 -0.000000 -0.000000
LeftFoot -14.422707 8.740549 -20.895311
LeftToeBase 17.142851 -0.000000 -0.000000
RightUpLeg 11.333926 -4.191179 3.110520
RightLeg -1.445893 -0.000000 0.000000
RightFoot -14.078778 -18.766750 16.147404
RightToeBase 12.316601 -0.000000 -0.000000
286
root 4.023867 32.436341 1.165612 -3.018517 11.271362 1.255162
Spine -0.798201 9.739194 -3.358380
Head 13.268409 -22.946980 -0.797967
LeftShoulder -9.213883 -7.885585 25.881142
LeftArm -7.595529 37.082282 -105.340741
LeftForeArm 5.487912 -0.000000 12.722481
LeftHand 9.685928 -0.000000 -7.381070
LeftHandThumb1 -26.253704 0.000000 33.147579
RightShoulder -19.638617 14.801409 -63.218669
RightArm 111.897269 66.684126 116.797553
RightForeArm 30.867840 -0.000000 149.304505
RightHand 29.317929 0.000000 -18.097179
RightHandThumb1 -24.326973 -0.000000 -32.862282
LeftUpLeg 8.487419 -8.376581 -1.456838
LeftLeg 2.646673 -0.000000 -0.000000
LeftFoot -14.422345 8.708535 -20.914131
LeftToeBase 17.227944 -0.000000 -0.000000
RightUpLeg 11.338390 -4.171916 3.117063
RightLeg -1.460691 -0.000000 0.000000
RightFoot -14.075880 -18.778839 16.144844
RightToeBase 12.357865 -0.000000 -0.000000
287
root 4.022672 32.436432 1.168315 -3.008039 11.267379 1.266429
Spine -0.801895 9.766351 -3.382587
Head 13.289806 -22.925449 -0.806764
LeftShoulder -9.204376 -7.826545 25.866178
LeftArm -7.492900 37.000102 -105.234341
LeftForeArm 5.706381 -0.000000 12.717145
LeftHand 9.570775 -0.000000 -7.112100
LeftHandThumb1 -26.253704 0.000000 33.147579
RightShoulder -19.665436 14.724000 -63.203110
RightArm 111.965951 66.615294 116.805231
RightForeArm 30.939318 -0.000000 149.415204
RightHand 29.319282 -0.000000 -17.991530
RightHandThumb1 -24.326973 -0.000000 -32.862282
LeftUpLeg 8.486164 -8.490210 -1.486723
LeftLeg 2.662165 -0.000000 -0.000000
LeftFoot -14.482875 8.811771 -20.950532
LeftToeBase 17.132098 -0.000000 -0.000000
RightUpLeg 11.332609 -4.167523 3.109431
RightLeg -1.458171 -0.000000 0.000000
RightFoot -14.089863 -18.780660 16.164555
RightToeBase 12.347683 -0.000000 -0.000000
288
root 4.021203 32.435826 1.171770 -3.001837 11.259296 1.262962
Spine -0.809437 9.792503 -3.386112
Head 13.279878 -22.955906 -0.837851
LeftShoulder -9.198224 -7.806500 25.851174
LeftArm -7.453414 36.959337 -105.175453
LeftForeArm 5.737320 -0.000000 12.715043
LeftHand 9.576241 -0.000000 -7.025951
LeftHandThumb1 -26.253704 0.000000 33.147579
RightShoulder -19.678243 14.639070 -63.189742
RightArm 112.133693 66.543684 116.934906
RightForeArm 31.003330 0.000000 149.528854
RightHand 29.277265 -0.000000 -17.864591
RightHandThumb1 -24.326973 -0.000000 -32.862282
LeftUpLeg 8.493451 -8.487547 -1.479183
LeftLeg 2.637419 -0.000000 -0.000000
LeftFoot -14.475382 8.833652 -20.944367
LeftToeBase 17.227811 -0.000000 -0.000000
RightUpLeg 11.330786 -4.180899 3.114557
RightLeg -1.457730 -0.000000 0.000000
RightFoot -14.070590 -18.773891 16.124992
RightToeBase 12.237121 -0.000000 -0.000000
